<mxfile host="app.diagrams.net" modified="2021-07-15T08:23:23.492Z" agent="5.0 (Windows NT 10.0; Win64; x64) AppleWebKit/537.36 (KHTML, like Gecko) Chrome/91.0.4472.124 Safari/537.36" etag="WLfRD8qnHeGN2UFcav5k" version="14.8.6" type="github" pages="2">
  <diagram id="VZICcWRFOJP2kb1DqosG" name="Page-1">
    <mxGraphModel dx="782" dy="436" grid="1" gridSize="10" guides="1" tooltips="1" connect="1" arrows="1" fold="1" page="1" pageScale="1" pageWidth="850" pageHeight="1100" math="0" shadow="0">
      <root>
        <mxCell id="0" />
        <mxCell id="1" parent="0" />
      </root>
    </mxGraphModel>
  </diagram>
  <diagram id="tFZjKesdVoR_Wh5Ui7Vk" name="Page-2">
    <mxGraphModel dx="782" dy="436" grid="1" gridSize="10" guides="1" tooltips="1" connect="1" arrows="1" fold="1" page="1" pageScale="1" pageWidth="850" pageHeight="1100" math="0" shadow="0">
      <root>
        <mxCell id="yF2jjFJjA-9MAOKjVbNL-0" />
        <mxCell id="yF2jjFJjA-9MAOKjVbNL-1" parent="yF2jjFJjA-9MAOKjVbNL-0" />
        <mxCell id="yF2jjFJjA-9MAOKjVbNL-2" value="" style="shape=image;html=1;verticalAlign=top;verticalLabelPosition=bottom;labelBackgroundColor=#ffffff;imageAspect=0;aspect=fixed;image=https://cdn1.iconfinder.com/data/icons/business-startup-14/60/Development-128.png" vertex="1" parent="yF2jjFJjA-9MAOKjVbNL-1">
          <mxGeometry x="60" y="20" width="128" height="128" as="geometry" />
        </mxCell>
      </root>
    </mxGraphModel>
  </diagram>
</mxfile>
